<?xml version="1.0" encoding="UTF-8" standalone="no"?>
<!-- Created with Inkscape (http://www.inkscape.org/) -->
<svg xmlns:dc="http://purl.org/dc/elements/1.1/" xmlns:cc="http://creativecommons.org/ns#" xmlns:rdf="http://www.w3.org/1999/02/22-rdf-syntax-ns#" xmlns:svg="http://www.w3.org/2000/svg" xmlns="http://www.w3.org/2000/svg" xmlns:xlink="http://www.w3.org/1999/xlink" xmlns:sodipodi="http://sodipodi.sourceforge.net/DTD/sodipodi-0.dtd" xmlns:inkscape="http://www.inkscape.org/namespaces/inkscape" width="744.09448819" height="1052.3622047" id="svg9636" version="1.1" inkscape:version="0.48.4 r9939" sodipodi:docname="candle.svg">
  <defs id="defs9638">
    <linearGradient id="linearGradient10172">
      <stop style="stop-color:#e3ff00;stop-opacity:1;" offset="0" id="stop10174"/>
      <stop style="stop-color:#ffa900;stop-opacity:1;" offset="1" id="stop10176"/>
    </linearGradient>
    <linearGradient id="linearGradient10162">
      <stop style="stop-color:#ffc900;stop-opacity:1;" offset="0" id="stop10164"/>
      <stop style="stop-color:#775e00;stop-opacity:1;" offset="1" id="stop10166"/>
    </linearGradient>
    <linearGradient inkscape:collect="always" xlink:href="#linearGradient10162" id="linearGradient10168" x1="240" y1="644.45161" x2="460.0021" y2="644.45161" gradientUnits="userSpaceOnUse" gradientTransform="matrix(0.83364667,0,0,0.83364667,119.96252,136.13828)"/>
    <linearGradient inkscape:collect="always" xlink:href="#linearGradient10172" id="linearGradient10178" x1="249.53741" y1="679.86096" x2="269.14871" y2="678.43237" gradientUnits="userSpaceOnUse" gradientTransform="matrix(0.83364667,0,0,0.83364667,119.96252,136.13828)"/>
    <filter inkscape:collect="always" id="filter10200" x="-0.13367088" width="1.2673418" y="-0.10886598" height="1.217732">
      <feGaussianBlur inkscape:collect="always" stdDeviation="26.668027" id="feGaussianBlur10202"/>
    </filter>
  </defs>
  <sodipodi:namedview id="base" pagecolor="#ffffff" bordercolor="#666666" borderopacity="1.0" inkscape:pageopacity="0.0" inkscape:pageshadow="2" inkscape:zoom="0.49497475" inkscape:cx="157.62487" inkscape:cy="574.41542" inkscape:document-units="px" inkscape:current-layer="layer1" showgrid="false" inkscape:window-width="1366" inkscape:window-height="706" inkscape:window-x="-8" inkscape:window-y="-8" inkscape:window-maximized="1"/>
  <g inkscape:label="Layer 1" inkscape:groupmode="layer" id="layer1">
    <g id="g10204" transform="translate(-52.527932,0)">
      <path transform="matrix(0.83364667,0,0,0.83364667,119.96252,136.13828)" d="m 595.99002,253.33151 c 0,162.34652 -107.18579,293.95438 -239.40616,293.95438 -132.22037,0 -239.40616,-131.60786 -239.40616,-293.95438 0,-162.346517 107.18579,-293.954374 239.40616,-293.954374 132.22037,0 239.40616,131.607857 239.40616,293.954374 z" sodipodi:ry="293.95438" sodipodi:rx="239.40616" sodipodi:cy="253.33151" sodipodi:cx="356.58386" id="path10198" style="opacity:0.44230766;fill:#ffff00;fill-opacity:1;stroke:none;filter:url(#filter10200)" sodipodi:type="arc"/>
      <path sodipodi:nodetypes="ccccc" inkscape:connector-curvature="0" id="rect9644" d="m 320.03773,434.64754 c 0,-51.68654 184.05782,-49.27509 183.40226,0 l 0,457.31474 c 0,80.95101 -183.40226,73.69089 -183.40226,0 z" style="fill:url(#linearGradient10168);fill-opacity:1;stroke:none"/>
      <path transform="matrix(0.83364667,0,0,0.83364667,123.33097,131.08562)" d="m 442.44682,369.49905 c 0,21.19989 -42.96476,38.3858 -95.96449,38.3858 -52.99973,0 -95.96449,-17.18591 -95.96449,-38.3858 0,-21.19989 42.96476,-38.38579 95.96449,-38.38579 52.99973,0 95.96449,17.1859 95.96449,38.38579 z" sodipodi:ry="38.385796" sodipodi:rx="95.964493" sodipodi:cy="369.49905" sodipodi:cx="346.48233" id="path9647" style="fill:#f8ff58;fill-opacity:1;stroke:none" sodipodi:type="arc"/>
      <path inkscape:connector-curvature="0" id="path10157" d="m 412.18174,407.12555 c -44.18305,0 -80.00403,14.31797 -80.00403,31.99119 0,1.13244 0.15597,2.25857 0.44287,3.36064 4.21526,-16.08687 38.22767,-28.63055 79.56116,-28.63055 41.33348,0 75.34589,12.54368 79.56115,28.63055 0.2869,-1.10207 0.44287,-2.2282 0.44287,-3.36064 0,-17.67322 -35.82098,-31.99119 -80.00402,-31.99119 z" style="fill:#ffa900;fill-opacity:1;stroke:none"/>
      <path sodipodi:nodetypes="cccc" inkscape:connector-curvature="0" id="path10170" d="m 327.12166,458.48581 0,443.79214 c 4.75921,12.41475 13.9184,24.3406 38.73708,34.52652 z" style="fill:url(#linearGradient10178);fill-opacity:1;stroke:none"/>
      <path sodipodi:nodetypes="cc" inkscape:connector-curvature="0" id="path10180" d="m 406.28003,442.48572 c 0,-40.13632 2.12374,-80.57727 43.78974,-84.63208" style="fill:none;stroke:#000000;stroke-width:4.16823339;stroke-linecap:butt;stroke-linejoin:miter;stroke-miterlimit:4;stroke-opacity:1;stroke-dasharray:none"/>
      <path inkscape:connector-curvature="0" id="path10187" d="m 418.19962,160.15772 c -35.43778,0 -64.16474,110.91378 -64.16474,171.3665 0,57.96383 26.42696,62.36265 59.8402,62.6277 -26.42876,-0.37722 -47.04893,-4.84768 -47.04893,-51.13901 0,-49.37742 23.47016,-139.97449 52.41553,-139.97449 28.94539,0 52.41554,90.59707 52.41554,139.97449 0,46.19837 -20.54024,50.74602 -46.89263,51.13901 32.35601,-0.46345 57.59977,-5.95327 57.59977,-62.6277 0,-60.45272 -28.72693,-171.3665 -64.16474,-171.3665 z" style="opacity:0.73893804;fill:#fbff00;fill-opacity:1;stroke:none"/>
      <path inkscape:connector-curvature="0" id="path10185" d="m 418.19962,203.01237 c -28.94537,0 -52.41553,90.59707 -52.41553,139.97449 0,49.37742 23.47016,51.16506 52.41553,51.16506 28.94539,0 52.41554,-1.78764 52.41554,-51.16506 0,-49.37742 -23.47015,-139.97449 -52.41554,-139.97449 z m -0.18236,29.17764 c 24.43676,0 44.26143,76.48319 44.26143,118.16941 0,41.68624 -19.82467,43.19332 -44.26143,43.19332 -24.43674,0 -44.23537,-1.50708 -44.23537,-43.19332 0,-41.68622 19.79863,-118.16941 44.23537,-118.16941 z" style="opacity:0.73893804;fill:#ffc500;fill-opacity:1;stroke:none"/>
      <path sodipodi:nodetypes="sssss" inkscape:connector-curvature="0" id="path10182" d="m 462.44629,350.94635 c 0,41.68624 -19.80992,43.20557 -44.24668,43.20557 -24.43674,0 -44.24665,-1.51933 -44.24665,-43.20557 0,-41.68623 19.80991,-118.1646 44.24665,-118.1646 24.43676,0 44.24668,76.47837 44.24668,118.1646 z" style="opacity:0.87168124;fill:#ff3d00;fill-opacity:1;stroke:none"/>
    </g>
  </g>
  <metadata>
    <rdf:RDF>
      <cc:Work>
        <dc:format>image/svg+xml</dc:format>
        <dc:type rdf:resource="http://purl.org/dc/dcmitype/StillImage"/>
        <cc:license rdf:resource="http://creativecommons.org/licenses/publicdomain/"/>
        <dc:publisher>
          <cc:Agent rdf:about="http://openclipart.org/">
            <dc:title>Open Clip Art Library</dc:title>
          </cc:Agent>
        </dc:publisher>
        <dc:title>Beeswax Candle</dc:title>
        <dc:date>2013-03-31T22:35:48</dc:date>
        <dc:description>A taper &lt;a href="http://www.waxwild.com"&gt;Beeswax Candle&lt;/a&gt;.</dc:description>
        <dc:source>http://openclipart.org/detail/176657/beeswax-candle-by-jesseakc-176657</dc:source>
        <dc:creator>
          <cc:Agent>
            <dc:title>jesseakc</dc:title>
          </cc:Agent>
        </dc:creator>
        <dc:subject>
          <rdf:Bag>
            <rdf:li>Beeswax Candle</rdf:li>
            <rdf:li>clip art</rdf:li>
            <rdf:li>clipart</rdf:li>
            <rdf:li>fire</rdf:li>
            <rdf:li>flame</rdf:li>
            <rdf:li>wax</rdf:li>
          </rdf:Bag>
        </dc:subject>
      </cc:Work>
      <cc:License rdf:about="http://creativecommons.org/licenses/publicdomain/">
        <cc:permits rdf:resource="http://creativecommons.org/ns#Reproduction"/>
        <cc:permits rdf:resource="http://creativecommons.org/ns#Distribution"/>
        <cc:permits rdf:resource="http://creativecommons.org/ns#DerivativeWorks"/>
      </cc:License>
    </rdf:RDF>
  </metadata>
</svg>
